<svg width="156" height="52" viewBox="0 0 156 52" fill="none" xmlns="http://www.w3.org/2000/svg">
<path d="M22.8462 12H10.8324C9.66429 12 8.56471 12.4368 7.73929 13.2306L3.61513 17.1898C2.78825 17.9822 2.33325 19.0378 2.33325 20.1606V37.2C2.33325 38.7442 3.59763 40 5.15367 40H22.8476C24.4022 40 25.6666 38.7442 25.6666 37.2V14.8C25.6666 13.2558 24.4022 12 22.8462 12ZM9.62492 15.3796V19H5.85367L9.62492 15.3796ZM5.24992 37.2V21.8H9.62492C11.2335 21.8 12.5416 20.5442 12.5416 19V14.7944L22.7412 14.7636C22.7412 14.7636 22.7499 14.7748 22.7499 14.8L22.8462 37.2H5.24992Z" fill="url(#paint0_linear_2047_362)" fill-opacity="0.5"/>
<path d="M17.3439 25.0102L12.5416 29.6204L10.656 27.8102C10.0858 27.2628 9.16409 27.2628 8.59388 27.8102C8.02367 28.3576 8.02367 29.2424 8.59388 29.7898L11.5105 32.5898C11.7949 32.8628 12.1683 33 12.5416 33C12.9149 33 13.2883 32.8628 13.5726 32.5898L19.406 26.9898C19.9762 26.4424 19.9762 25.5576 19.406 25.0102C18.8358 24.4628 17.9141 24.4628 17.3439 25.0102Z" fill="url(#paint1_linear_2047_362)" fill-opacity="0.5"/>
<path d="M46.76 40V12H57.2C59.4667 12 61.3333 12.3867 62.8 13.16C64.2667 13.9333 65.36 14.9733 66.08 16.28C66.8 17.56 67.16 18.9867 67.16 20.56C67.16 22.0533 66.8133 23.4533 66.12 24.76C65.4267 26.04 64.3333 27.08 62.84 27.88C61.3733 28.6533 59.48 29.04 57.16 29.04H52.16V40H46.76ZM61.28 40L55.52 27.68H61.36L67.44 40H61.28ZM52.16 25.12H56.88C58.5067 25.12 59.7067 24.72 60.48 23.92C61.2533 23.12 61.64 22.0667 61.64 20.76C61.64 19.4533 61.2533 18.4267 60.48 17.68C59.7333 16.9067 58.5333 16.52 56.88 16.52H52.16V25.12ZM79.1434 40.48C77.1168 40.48 75.3168 40.0533 73.7434 39.2C72.1968 38.32 70.9834 37.1067 70.1034 35.56C69.2501 33.9867 68.8234 32.1733 68.8234 30.12C68.8234 28.0133 69.2501 26.16 70.1034 24.56C70.9834 22.9333 72.1968 21.6667 73.7434 20.76C75.2901 19.8267 77.0901 19.36 79.1434 19.36C81.1434 19.36 82.8901 19.8 84.3834 20.68C85.8768 21.56 87.0368 22.7467 87.8634 24.24C88.6901 25.7333 89.1034 27.4267 89.1034 29.32C89.1034 29.5867 89.1034 29.8933 89.1034 30.24C89.1034 30.56 89.0768 30.8933 89.0234 31.24H72.6634V27.96H83.6634C83.5834 26.6533 83.1168 25.6267 82.2634 24.88C81.4368 24.1333 80.3968 23.76 79.1434 23.76C78.2368 23.76 77.3968 23.9733 76.6234 24.4C75.8501 24.8 75.2368 25.4267 74.7834 26.28C74.3568 27.1333 74.1434 28.2133 74.1434 29.52V30.68C74.1434 31.7733 74.3434 32.7333 74.7434 33.56C75.1701 34.36 75.7568 34.9867 76.5034 35.44C77.2501 35.8667 78.1168 36.08 79.1034 36.08C80.0901 36.08 80.9034 35.8667 81.5434 35.44C82.2101 35.0133 82.7034 34.4667 83.0234 33.8H88.5434C88.1701 35.0533 87.5434 36.1867 86.6634 37.2C85.7834 38.2133 84.7034 39.0133 83.4234 39.6C82.1434 40.1867 80.7168 40.48 79.1434 40.48ZM102.086 40.48C100.059 40.48 98.2593 40.0267 96.6859 39.12C95.1126 38.2133 93.8859 36.9733 93.0059 35.4C92.1259 33.8267 91.6859 32.0267 91.6859 30C91.6859 27.92 92.1259 26.0933 93.0059 24.52C93.8859 22.92 95.1126 21.6667 96.6859 20.76C98.2593 19.8267 100.059 19.36 102.086 19.36C104.673 19.36 106.846 20.04 108.606 21.4C110.366 22.76 111.486 24.6267 111.966 27H106.246C106.006 26.0667 105.499 25.3333 104.726 24.8C103.979 24.2667 103.086 24 102.046 24C101.113 24 100.273 24.24 99.5259 24.72C98.8059 25.1733 98.2326 25.8533 97.8059 26.76C97.4059 27.64 97.2059 28.6933 97.2059 29.92C97.2059 30.8533 97.3259 31.6933 97.5659 32.44C97.8059 33.16 98.1393 33.7867 98.5659 34.32C98.9926 34.8267 99.4993 35.2133 100.086 35.48C100.699 35.7467 101.353 35.88 102.046 35.88C102.739 35.88 103.366 35.76 103.926 35.52C104.513 35.28 105.006 34.9467 105.406 34.52C105.806 34.0667 106.086 33.52 106.246 32.88H111.966C111.486 35.2 110.353 37.0533 108.566 38.44C106.806 39.8 104.646 40.48 102.086 40.48ZM122.223 40.48C120.543 40.48 119.156 40.2133 118.063 39.68C116.969 39.12 116.156 38.3867 115.623 37.48C115.116 36.5467 114.863 35.52 114.863 34.4C114.863 33.1733 115.169 32.0933 115.783 31.16C116.423 30.2267 117.369 29.4933 118.623 28.96C119.903 28.4267 121.503 28.16 123.423 28.16H128.423C128.423 27.1733 128.289 26.36 128.023 25.72C127.756 25.0533 127.343 24.56 126.783 24.24C126.223 23.92 125.476 23.76 124.543 23.76C123.529 23.76 122.663 23.9867 121.943 24.44C121.249 24.8667 120.823 25.5333 120.663 26.44H115.423C115.556 25 116.023 23.76 116.823 22.72C117.649 21.6533 118.729 20.8267 120.063 20.24C121.423 19.6533 122.929 19.36 124.583 19.36C126.476 19.36 128.116 19.68 129.503 20.32C130.889 20.96 131.956 21.88 132.703 23.08C133.449 24.28 133.823 25.76 133.823 27.52V40H129.263L128.663 36.92C128.369 37.4533 128.023 37.9333 127.623 38.36C127.223 38.7867 126.756 39.16 126.223 39.48C125.689 39.8 125.089 40.04 124.423 40.2C123.756 40.3867 123.023 40.48 122.223 40.48ZM123.503 36.32C124.196 36.32 124.809 36.2 125.343 35.96C125.903 35.6933 126.383 35.3467 126.783 34.92C127.183 34.4667 127.489 33.96 127.703 33.4C127.943 32.8133 128.103 32.1867 128.183 31.52V31.48H124.063C123.236 31.48 122.556 31.5867 122.023 31.8C121.516 31.9867 121.143 32.2667 120.903 32.64C120.663 33.0133 120.543 33.44 120.543 33.92C120.543 34.4533 120.663 34.8933 120.903 35.24C121.143 35.5867 121.489 35.8533 121.943 36.04C122.396 36.2267 122.916 36.32 123.503 36.32ZM137.66 40V11.2H143.06V40H137.66ZM147.124 40V11.2H152.524V40H147.124Z" fill="#1F2A37"/>
<defs>
<linearGradient id="paint0_linear_2047_362" x1="23.2272" y1="13.5909" x2="5.09085" y2="38.7273" gradientUnits="userSpaceOnUse">
<stop stop-color="#A4E979"/>
<stop offset="1" stop-color="#7EED0F"/>
</linearGradient>
<linearGradient id="paint1_linear_2047_362" x1="23.2272" y1="13.5909" x2="5.09085" y2="38.7273" gradientUnits="userSpaceOnUse">
<stop stop-color="#A4E979"/>
<stop offset="1" stop-color="#7EED0F"/>
</linearGradient>
</defs>
</svg>
